<svg xmlns="http://www.w3.org/2000/svg" viewBox="0 0 512 512">
<defs>
 <radialGradient id="bg" cx="50%" cy="28%" r="80%">
  <stop offset="0" stop-color="#22324d"/><stop offset="1" stop-color="#0b1222"/>
 </radialGradient>
 <linearGradient id="g" x1="0" y1="0" x2="0" y2="1">
  <stop offset="0" stop-color="#fde68a"/><stop offset=".55" stop-color="#fbbf24"/><stop offset="1" stop-color="#d97706"/>
 </linearGradient>
</defs>
<rect width="512" height="512" rx="112" fill="url(#bg)"/>
<g transform="translate(20.47999999999999 20.47999999999999) scale(0.92)">
 <path d="M256 420 C 150 345, 92 288, 92 210 C 92 152, 136 112, 188 112 C 220 112, 244 128, 256 152 C 268 128, 292 112, 324 112 C 376 112, 420 152, 420 210 C 420 288, 362 345, 256 420 Z" fill="url(#g)"/>
 <path d="M168 236 Q 256 170 344 236 Q 256 302 168 236 Z" fill="#0f172a"/>
 <circle cx="256" cy="236" r="30" fill="url(#g)"/>
 <circle cx="256" cy="236" r="11" fill="#0f172a"/>
</g>
</svg>